REM DIRINDEX 1\2,1\3,1\4
REM DIRNAME cjc151,folder01,folder02,folder03
TITLE ""
FILE "027 027_TOEFL_3900.mp3" MP3
  TRACK 01 AUDIO
    TITLE "2:cjc151_1152"
    INDEX 01 00:00:00
  TRACK 02 AUDIO
    TITLE "0:"
    INDEX 01 00:01:30
  TRACK 03 AUDIO
    TITLE "3:cjc151_1153"
    INDEX 01 00:03:10
  TRACK 04 AUDIO
    TITLE "0:"
    INDEX 01 00:07:43
  TRACK 05 AUDIO
    TITLE "2:cjc151_1154"
    INDEX 01 00:09:22
  TRACK 06 AUDIO
    TITLE "0:"
    INDEX 01 00:10:25
  TRACK 07 AUDIO
    TITLE "3:cjc151_1155"
    INDEX 01 00:12:05
  TRACK 08 AUDIO
    TITLE "0:"
    INDEX 01 00:16:10
  TRACK 09 AUDIO
    TITLE "2:cjc151_1156"
    INDEX 01 00:17:72
  TRACK 10 AUDIO
    TITLE "0:"
    INDEX 01 00:19:15
  TRACK 11 AUDIO
    TITLE "3:cjc151_1157"
    INDEX 01 00:20:63
  TRACK 12 AUDIO
    TITLE "0:"
    INDEX 01 00:24:14
  TRACK 13 AUDIO
    TITLE "2:cjc151_1158"
    INDEX 01 00:25:66
  TRACK 14 AUDIO
    TITLE "0:"
    INDEX 01 00:26:62
  TRACK 15 AUDIO
    TITLE "3:cjc151_1159"
    INDEX 01 00:28:43
  TRACK 16 AUDIO
    TITLE "0:"
    INDEX 01 00:32:00
  TRACK 17 AUDIO
    TITLE "2:cjc151_1160"
    INDEX 01 00:33:52
  TRACK 18 AUDIO
    TITLE "0:"
    INDEX 01 00:34:51
  TRACK 19 AUDIO
    TITLE "3:cjc151_1161"
    INDEX 01 00:36:33
  TRACK 20 AUDIO
    TITLE "0:"
    INDEX 01 00:40:30
  TRACK 21 AUDIO
    TITLE "2:cjc151_1162"
    INDEX 01 00:42:12
  TRACK 22 AUDIO
    TITLE "0:"
    INDEX 01 00:43:23
  TRACK 23 AUDIO
    TITLE "3:cjc151_1163"
    INDEX 01 00:45:02
  TRACK 24 AUDIO
    TITLE "0:"
    INDEX 01 00:48:48
  TRACK 25 AUDIO
    TITLE "2:cjc151_1164"
    INDEX 01 00:50:29
  TRACK 26 AUDIO
    TITLE "0:"
    INDEX 01 00:51:46
  TRACK 27 AUDIO
    TITLE "3:cjc151_1165"
    INDEX 01 00:53:25
  TRACK 28 AUDIO
    TITLE "0:"
    INDEX 01 00:56:69
  TRACK 29 AUDIO
    TITLE "2:cjc151_1166"
    INDEX 01 00:58:50
  TRACK 30 AUDIO
    TITLE "0:"
    INDEX 01 01:00:02
  TRACK 31 AUDIO
    TITLE "3:cjc151_1167"
    INDEX 01 01:01:58
  TRACK 32 AUDIO
    TITLE "0:"
    INDEX 01 01:05:44
  TRACK 33 AUDIO
    TITLE "2:cjc151_1168"
    INDEX 01 01:07:25
  TRACK 34 AUDIO
    TITLE "0:"
    INDEX 01 01:08:33
  TRACK 35 AUDIO
    TITLE "3:cjc151_1169"
    INDEX 01 01:10:12
  TRACK 36 AUDIO
    TITLE "0:"
    INDEX 01 01:13:57
  TRACK 37 AUDIO
    TITLE "2:cjc151_1170"
    INDEX 01 01:15:39
  TRACK 38 AUDIO
    TITLE "0:"
    INDEX 01 01:16:52
  TRACK 39 AUDIO
    TITLE "3:cjc151_1171"
    INDEX 01 01:18:41
  TRACK 40 AUDIO
    TITLE "0:"
    INDEX 01 01:22:54
  TRACK 41 AUDIO
    TITLE "2:cjc151_1172"
    INDEX 01 01:24:32
  TRACK 42 AUDIO
    TITLE "0:"
    INDEX 01 01:25:39
  TRACK 43 AUDIO
    TITLE "3:cjc151_1173"
    INDEX 01 01:27:18
  TRACK 44 AUDIO
    TITLE "0:"
    INDEX 01 01:31:45
  TRACK 45 AUDIO
    TITLE "2:cjc151_1174"
    INDEX 01 01:33:25
  TRACK 46 AUDIO
    TITLE "0:"
    INDEX 01 01:34:40
  TRACK 47 AUDIO
    TITLE "3:cjc151_1175"
    INDEX 01 01:36:19
  TRACK 48 AUDIO
    TITLE "0:"
    INDEX 01 01:40:70
  TRACK 49 AUDIO
    TITLE "2:cjc151_1176"
    INDEX 01 01:42:49
  TRACK 50 AUDIO
    TITLE "0:"
    INDEX 01 01:43:62
  TRACK 51 AUDIO
    TITLE "3:cjc151_1177"
    INDEX 01 01:45:42
  TRACK 52 AUDIO
    TITLE "0:"
    INDEX 01 01:49:41
  TRACK 53 AUDIO
    TITLE "2:cjc151_1178"
    INDEX 01 01:51:23
  TRACK 54 AUDIO
    TITLE "0:"
    INDEX 01 01:52:40
  TRACK 55 AUDIO
    TITLE "3:cjc151_1179"
    INDEX 01 01:54:19
  TRACK 56 AUDIO
    TITLE "0:"
    INDEX 01 01:57:57
  TRACK 57 AUDIO
    TITLE "2:cjc151_1180"
    INDEX 01 01:59:40
  TRACK 58 AUDIO
    TITLE "0:"
    INDEX 01 02:00:59
  TRACK 59 AUDIO
    TITLE "3:cjc151_1181"
    INDEX 01 02:02:38
  TRACK 60 AUDIO
    TITLE "0:"
    INDEX 01 02:06:65
  TRACK 61 AUDIO
    TITLE "2:cjc151_1182"
    INDEX 01 02:08:45
  TRACK 62 AUDIO
    TITLE "0:"
    INDEX 01 02:09:58
  TRACK 63 AUDIO
    TITLE "3:cjc151_1183"
    INDEX 01 02:11:37
  TRACK 64 AUDIO
    TITLE "0:"
    INDEX 01 02:14:33
  TRACK 65 AUDIO
    TITLE "2:cjc151_1184"
    INDEX 01 02:16:13
  TRACK 66 AUDIO
    TITLE "0:"
    INDEX 01 02:17:28
  TRACK 67 AUDIO
    TITLE "3:cjc151_1185"
    INDEX 01 02:19:07
  TRACK 68 AUDIO
    TITLE "0:"
    INDEX 01 02:22:49
  TRACK 69 AUDIO
    TITLE "2:cjc151_1186"
    INDEX 01 02:24:28
  TRACK 70 AUDIO
    TITLE "0:"
    INDEX 01 02:25:39
  TRACK 71 AUDIO
    TITLE "3:cjc151_1187"
    INDEX 01 02:27:16
  TRACK 72 AUDIO
    TITLE "0:"
    INDEX 01 02:31:48
  TRACK 73 AUDIO
    TITLE "2:cjc151_1188"
    INDEX 01 02:33:27
  TRACK 74 AUDIO
    TITLE "0:"
    INDEX 01 02:34:36
  TRACK 75 AUDIO
    TITLE "3:cjc151_1189"
    INDEX 01 02:36:15
  TRACK 76 AUDIO
    TITLE "0:"
    INDEX 01 02:39:26
  TRACK 77 AUDIO
    TITLE "2:cjc151_1190"
    INDEX 01 02:41:05
  TRACK 78 AUDIO
    TITLE "0:"
    INDEX 01 02:42:14
  TRACK 79 AUDIO
    TITLE "3:cjc151_1191"
    INDEX 01 02:43:66
  TRACK 80 AUDIO
    TITLE "0:"
    INDEX 01 02:47:17
  TRACK 81 AUDIO
    TITLE "2:cjc151_1192"
    INDEX 01 02:48:73
  TRACK 82 AUDIO
    TITLE "0:"
    INDEX 01 02:50:00
  TRACK 83 AUDIO
    TITLE "3:cjc151_1193"
    INDEX 01 02:51:54
  TRACK 84 AUDIO
    TITLE "0:"
    INDEX 01 02:55:56
  TRACK 85 AUDIO
    TITLE "2:cjc151_1194"
    INDEX 01 02:57:35
  TRACK 86 AUDIO
    TITLE "0:"
    INDEX 01 02:58:39
  TRACK 87 AUDIO
    TITLE "3:cjc151_1195"
    INDEX 01 03:00:18
  TRACK 88 AUDIO
    TITLE "0:"
    INDEX 01 03:03:55
